<svg id="Capa_1" enable-background="new 0 0 512 512" height="512" viewBox="0 0 512 512" width="512" xmlns="http://www.w3.org/2000/svg"><g><path d="m0 30.024v451.951h240.977v-180.951h30.047v180.951h240.976v-451.951zm482 60.048h-30.25v-30.048h30.25zm-391.75 0v-30.048h30.25v30.048zm60.25-30.048h30.25v30.048h-30.25zm60.25 0h30.25v30.048h-30.25zm60.25 0h30.25v30.048h-30.25zm60.25 0h30.25v30.048h-30.25zm60.25 0h30.25v30.048h-30.25zm-331.25 0v30.048h-30.25v-30.048zm240.773 391.952v-180.952h-90.047v180.951h-180.976v-331.903h452v331.903h-180.977z"/></g></svg>